<?xml version="1.0" encoding="UTF-8"?><svg id="_レイヤー_2" xmlns="http://www.w3.org/2000/svg" viewBox="0 0 1590.83 478.05"><defs><style>.cls-1{opacity:.75;}.cls-2{fill:#fff;}.cls-3{fill:#00897b;}.cls-4{fill:#1976d2;}</style></defs><g id="_レイヤー_2-2"><polygon class="cls-2" points="81.37 100.02 0 353.88 408.63 353.88 81.37 100.02"/><polygon class="cls-2" points="204.32 478.05 0 353.88 204.32 353.88 204.32 478.05"/><polygon class="cls-2" points="327.26 100.02 408.63 353.88 0 353.88 327.26 100.02"/><polygon class="cls-2" points="204.32 0 0 353.88 204.32 353.88 204.32 0"/><polygon class="cls-2" points="204.32 478.05 408.63 353.88 204.32 353.88 204.32 478.05"/><polygon class="cls-2" points="204.32 0 408.63 353.88 204.32 353.88 204.32 0"/><polygon class="cls-2" points="204.32 478.05 138.54 353.88 204.32 229.72 270.09 353.88 204.32 478.05"/><g class="cls-1"><polygon class="cls-4" points="81.37 100.02 0 353.88 408.63 353.88 81.37 100.02"/></g><g class="cls-1"><polygon class="cls-4" points="204.32 478.05 0 353.88 204.32 353.88 204.32 478.05"/></g><g class="cls-1"><polygon class="cls-3" points="327.26 100.02 408.63 353.88 0 353.88 327.26 100.02"/></g><g class="cls-1"><polygon class="cls-4" points="204.32 0 0 353.88 204.32 353.88 204.32 0"/></g><g class="cls-1"><polygon class="cls-3" points="204.32 478.05 408.63 353.88 204.32 353.88 204.32 478.05"/></g><g class="cls-1"><polygon class="cls-3" points="204.32 0 408.63 353.88 204.32 353.88 204.32 0"/></g><polygon class="cls-2" points="206.51 440.24 149.65 334.4 204.32 229.72 261.17 335.56 206.51 440.24"/><path class="cls-4" d="M739.25,118.17v93.66h-.57l.57.57-72.4,53.44v137.91h-87.34v-91.08h-95.96v-71.83h96.82l87.05-64.64v-58.04h71.83Z"/><path class="cls-4" d="M1061.93,331.93v71.83h-273.52v-71.83h273.52ZM1046.12,160.98v71.83h-241.91v-71.83h241.91Z"/><path class="cls-4" d="M1292.44,237.98v133.02l-28.44,33.62h-138.2v-53.44h113.2v-113.2h53.44ZM1172.06,250.04v61.2h-45.97v-61.2h45.97ZM1229.52,250.04v61.2h-45.97v-61.2h45.97Z"/><path class="cls-4" d="M1463.84,118.17v92.23l126.99,57.46-32.47,71.25-94.52-42.81v107.45h-87.34V118.17h87.34Z"/><polygon class="cls-3" points="739.25 69.98 667.42 118.17 739.25 118.17 739.25 69.98"/><polygon class="cls-3" points="1046.12 112.79 974.3 160.98 1046.12 160.98 1046.12 112.79"/><polygon class="cls-3" points="1463.84 69.98 1376.5 118.17 1463.84 118.17 1463.84 69.98"/></g></svg>