<?xml version="1.0" encoding="UTF-8"?><svg id="_レイヤー_2" xmlns="http://www.w3.org/2000/svg" viewBox="0 0 408.63 478.05"><defs><style>.cls-1{opacity:.75;}.cls-2{fill:#fff;}.cls-3{fill:#00897b;}.cls-4{fill:#1976d2;}</style></defs><g id="_レイヤー_3"><polygon class="cls-2" points="81.37 100.02 0 353.88 408.63 353.88 81.37 100.02"/><polygon class="cls-2" points="204.32 478.05 0 353.88 204.32 353.88 204.32 478.05"/><polygon class="cls-2" points="327.26 100.02 408.63 353.88 0 353.88 327.26 100.02"/><polygon class="cls-2" points="204.32 0 0 353.88 204.32 353.88 204.32 0"/><polygon class="cls-2" points="204.32 478.05 408.63 353.88 204.32 353.88 204.32 478.05"/><polygon class="cls-2" points="204.32 0 408.63 353.88 204.32 353.88 204.32 0"/><polygon class="cls-2" points="204.32 478.05 138.54 353.88 204.32 229.72 270.09 353.88 204.32 478.05"/><g class="cls-1"><polygon class="cls-4" points="81.37 100.02 0 353.88 408.63 353.88 81.37 100.02"/></g><g class="cls-1"><polygon class="cls-4" points="204.32 478.05 0 353.88 204.32 353.88 204.32 478.05"/></g><g class="cls-1"><polygon class="cls-3" points="327.26 100.02 408.63 353.88 0 353.88 327.26 100.02"/></g><g class="cls-1"><polygon class="cls-4" points="204.32 0 0 353.88 204.32 353.88 204.32 0"/></g><g class="cls-1"><polygon class="cls-3" points="204.32 478.05 408.63 353.88 204.32 353.88 204.32 478.05"/></g><g class="cls-1"><polygon class="cls-3" points="204.32 0 408.63 353.88 204.32 353.88 204.32 0"/></g><polygon class="cls-2" points="206.51 440.24 149.65 334.4 204.32 229.72 261.17 335.56 206.51 440.24"/></g></svg>