<?xml version="1.0" encoding="UTF-8"?><svg id="_レイヤー_2" xmlns="http://www.w3.org/2000/svg" viewBox="0 0 1683.48 478.05"><defs><style>.cls-1{opacity:.75;}.cls-2{fill:#fff;}.cls-3{fill:#00897b;}.cls-4{fill:#1976d2;}</style></defs><g id="_レイヤー_2-2"><polygon class="cls-2" points="81.37 100.02 0 353.88 408.63 353.88 81.37 100.02"/><polygon class="cls-2" points="204.32 478.05 0 353.88 204.32 353.88 204.32 478.05"/><polygon class="cls-2" points="327.26 100.02 408.63 353.88 0 353.88 327.26 100.02"/><polygon class="cls-2" points="204.32 0 0 353.88 204.32 353.88 204.32 0"/><polygon class="cls-2" points="204.32 478.05 408.63 353.88 204.32 353.88 204.32 478.05"/><polygon class="cls-2" points="204.32 0 408.63 353.88 204.32 353.88 204.32 0"/><polygon class="cls-2" points="204.32 478.05 138.54 353.88 204.32 229.72 270.09 353.88 204.32 478.05"/><g class="cls-1"><polygon class="cls-4" points="81.37 100.02 0 353.88 408.63 353.88 81.37 100.02"/></g><g class="cls-1"><polygon class="cls-4" points="204.32 478.05 0 353.88 204.32 353.88 204.32 478.05"/></g><g class="cls-1"><polygon class="cls-3" points="327.26 100.02 408.63 353.88 0 353.88 327.26 100.02"/></g><g class="cls-1"><polygon class="cls-4" points="204.32 0 0 353.88 204.32 353.88 204.32 0"/></g><g class="cls-1"><polygon class="cls-3" points="204.32 478.05 408.63 353.88 204.32 353.88 204.32 478.05"/></g><g class="cls-1"><polygon class="cls-3" points="204.32 0 408.63 353.88 204.32 353.88 204.32 0"/></g><polygon class="cls-2" points="206.51 440.24 149.65 334.4 204.32 229.72 261.17 335.56 206.51 440.24"/><polygon class="cls-4" points="491.61 353.57 491.61 322.2 554.34 322.2 554.34 228.11 522.97 228.11 522.97 196.74 617.07 196.74 617.07 322.2 679.8 322.2 679.8 353.57 491.61 353.57"/><rect class="cls-3" x="554.34" y="134.01" width="62.73" height="31.37"/><path class="cls-4" d="M711.16,353.57v-156.83h188.19v31.37h31.37v125.46h-62.73v-125.46h-94.1v125.46h-62.73Z"/><path class="cls-3" d="M993.45,259.47v-31.37h188.19v31.37h-188.19Z"/><polygon class="cls-4" points="1244.37 353.57 1244.37 322.2 1307.1 322.2 1307.1 228.11 1275.74 228.11 1275.74 196.74 1369.83 196.74 1369.83 322.2 1432.56 322.2 1432.56 353.57 1244.37 353.57"/><rect class="cls-3" x="1307.1" y="134.01" width="62.73" height="31.37"/><path class="cls-4" d="M1558.02,353.57v-125.46h-62.73v-31.37h62.73v-62.73h62.73v62.73h62.73v31.37h-62.73v125.46h-62.73Z"/></g></svg>